# xmcd
#
# Track frame offsets: 
#        150
#        17022
#        43817
#        65187
#        110417
#        127145
#        151202
#        167315
#        201622
#        230297
#
# Disc length: 3421 seconds
#
# Revision: 0
# Processed by: cddbd v1.5.2PL0 Copyright (c) Steve Scherf et al.
# Submitted via: ExactAudioCopy v1.3
#
DISCID=890d5b0a
DTITLE=Konrad Hunteler - Musica Alta Ripa - Konrad Hunteler
DYEAR=1992
DGENRE=Chamber Music
TTITLE0=Concerto per due violini in re minore BWV 1043 - Vivace 
TTITLE1=Concerto per due violini in re minore BWV 1043 - Largo ma non 
TTITLE1=tanto
TTITLE2=Concerto per due violini in re minore BWV 1043 - Allegro
TTITLE3=Concerto n. 3 per archi e basso continuo in sol maggiore BWV 1
TTITLE3=048 
TTITLE4=Concerto per archi e basso continuo in la minore BWV 1041 - Al
TTITLE4=legro 
TTITLE5=Concerto per archi e basso continuo in la minore BWV 1041 - An
TTITLE5=dante
TTITLE6=Concerto per archi e basso continuo in la minore BWV 1041 - Al
TTITLE6=legro assai
TTITLE7=Concerto per due clavicembali in do maggiore BWV 1061a - Alleg
TTITLE7=ro 
TTITLE8=Concerto per due clavicembali in do maggiore BWV 1061a - Adagi
TTITLE8=o ovvero largo 
TTITLE9=Concerto per due clavicembali in do maggiore BWV 1061a - Fuga
EXTD=
EXTT0=
EXTT1=
EXTT2=
EXTT3=
EXTT4=
EXTT5=
EXTT6=
EXTT7=
EXTT8=
EXTT9=
PLAYORDER=
